<svg width="62" height="62" viewBox="0 0 62 62" fill="none" xmlns="http://www.w3.org/2000/svg">
<rect width="61.3372" height="61.3372" rx="8" fill="#2A2AD7"/>
<path d="M36.7084 35.6894C37.0764 35.602 37.1761 35.3919 37.2037 35.2677L37.469 32.5057C34.4801 32.7158 30.6063 33.1805 27.7247 33.3829C27.7416 33.616 27.6664 35.875 27.7247 37.8349L36.7084 35.691V35.6894Z" fill="white"/>
<path d="M38.291 45.6311C38.2619 45.3919 38.1054 45.2217 37.9291 45.2386C36.5213 45.3735 28.1019 44.9533 28.1019 44.9533C28.1556 47.6279 28.1939 49.4037 28.1939 49.4037C31.4068 49.094 35.5306 48.686 38.6207 48.387L38.291 45.6311Z" fill="white"/>
<path d="M35.0091 19.2651C34.3988 17.411 33.8007 15.5538 33.1918 13.6859L27.6986 13.5632C27.125 13.551 26.9977 13.8378 26.9701 13.9359C26.0362 18.2529 24.6897 24.2078 23.7036 28.7334L27.0667 28.0433C27.4072 26.1278 27.8381 23.7493 28.062 22.4457C29.2889 22.4289 30.0772 22.4028 31.2611 22.4273C31.2611 22.4273 32.9894 28.0387 33.4878 29.994C33.5308 30.1611 33.6903 30.2716 33.8605 30.2501L38.475 29.3898C37.6024 26.6922 35.8986 21.9565 35.0107 19.2636" fill="white"/>
<path d="M22.7252 33.9334C22.5641 33.9487 22.4369 34.076 22.42 34.237C22.3893 34.5345 20.3512 46.09 20.3405 46.1652C20.3251 46.0916 17.9511 34.4471 17.9051 34.1511C17.8806 33.9917 17.7472 33.872 17.5846 33.8644L15.6584 34.4165C16.0342 36.0957 19.1627 50.154 19.1627 50.154L22.8279 49.8212C22.8279 49.8212 25.5209 35.3197 25.8077 33.6236L22.7236 33.9334H22.7252Z" fill="white"/>
<path d="M19.3315 29.2762C19.3576 29.4955 19.2027 29.6964 18.9834 29.724L12.8905 30.8758C12.5684 28.1567 12.1252 23.8873 11.7311 19.9812C11.7311 19.9812 22.2514 18.4431 23.7022 18.1609C23.8647 18.9768 23.9215 20.4751 23.9215 20.4751C21.0015 21.1912 20.8497 21.2495 18.5187 21.6559C18.8545 24.4424 19.0018 26.4652 19.3315 29.2747" fill="white"/>
<path d="M44.7644 37.9278C44.7644 37.9278 42.4103 35.4281 46.7595 31.5344H46.7565C46.9512 31.3565 46.7733 31.2553 46.7013 31.2246L42.7937 29.7217C42.7937 29.7217 39.4474 32.4238 39.5609 36.2302C39.6115 37.9125 39.7986 39.1363 43.1572 42.1728C44.496 43.3843 43.3872 45.2844 41.3613 47.7335L45.5879 50.5952C45.9667 50.129 48.5692 45.8104 48.5692 43.3061C48.5692 40.5227 47.1644 40.5886 44.7644 37.9278Z" fill="white"/>
<path d="M24.1699 10.7332C24.1699 10.7332 18.8806 11.4325 17.117 11.6656C15.7444 11.8465 12.0178 12.3403 10.9842 12.4768C10.7588 12.506 10.7312 12.6133 10.7342 12.6701L11.3676 17.2447L24.4643 14.5748L24.1714 10.7332H24.1699Z" fill="white"/>
<path d="M36.4104 39.0284L28.1044 39.5786L28.3296 42.9788L36.6357 42.4285L36.4104 39.0284Z" fill="white"/>
<path d="M48.4708 11.9934L45.6122 12.797L45.8975 14.3306C46.1398 15.6541 46.4925 17.6186 46.7502 19.2764C47.2409 22.4248 47.5461 24.3924 45.169 24.8126C43.1401 25.173 42.5374 23.5765 41.8718 20.0493C41.3458 17.272 40.9088 14.8305 40.7723 14.1757C40.737 13.9993 40.579 13.8736 40.3981 13.8782C40.2202 13.8812 37.222 13.7908 37.222 13.7908C37.222 13.7908 38.202 18.7825 38.5701 20.7241C39.1037 23.5382 39.4549 28.5192 45.5034 27.2985C48.9156 26.6099 50.9138 24.5488 50.9138 24.5488L48.4739 11.9934H48.4708Z" fill="white"/>
</svg>
