<svg width="62" height="62" viewBox="0 0 62 62" fill="none" xmlns="http://www.w3.org/2000/svg">
<rect width="61.3372" height="61.3372" rx="8" fill="#1D0C17"/>
<path d="M47.5302 37.7719L47.395 35.9377C47.3757 35.5515 47.1633 35.3585 46.7772 35.3585H46.6227C46.2366 35.3585 46.0242 35.5515 46.0049 35.9377L45.8697 37.7719C45.8504 38.1581 45.638 38.3511 45.2519 38.3511H40.2126C39.8264 38.3511 39.6719 38.1774 39.7492 37.7912L42.3557 25.3957C42.4329 25.0095 42.6646 24.8358 43.0508 24.8358L50.3491 24.8358C50.7352 24.8358 50.9669 25.0095 51.0442 25.3957L53.6507 37.7912C53.7279 38.1774 53.5735 38.3511 53.1873 38.3511L48.148 38.3511C47.7619 38.3511 47.5495 38.1581 47.5302 37.7719ZM47.1633 32.9257L47.0089 30.7246C46.9896 30.5315 46.893 30.435 46.6999 30.435C46.5069 30.435 46.4103 30.5315 46.391 30.7246L46.2366 32.9257C46.2172 33.2539 46.3524 33.4277 46.6999 33.4277C47.0282 33.4277 47.1826 33.2539 47.1633 32.9257Z" fill="#FF00BF"/>
<path d="M32.9077 25.4149L33.6607 31.9795C33.7186 32.4236 33.8344 32.5587 34.1047 32.5587C34.3557 32.5587 34.4909 32.4236 34.5488 31.9795L35.3018 25.4149C35.3404 25.0287 35.5528 24.8357 35.939 24.8357H40.5921C40.9783 24.8357 41.1521 25.0287 41.0748 25.4149L38.8158 37.7718C38.7386 38.158 38.5262 38.3511 38.1401 38.3511H30.0694C29.6833 38.3511 29.4709 38.158 29.3937 37.7718L27.1347 25.4149C27.0574 25.0287 27.2312 24.8357 27.6174 24.8357L32.2705 24.8357C32.6567 24.8357 32.8691 25.0287 32.9077 25.4149Z" fill="#FF00BF"/>
<path d="M21.819 28.7744L22.4368 28.8517C22.6685 28.8903 22.8037 28.8324 22.8616 28.6393C22.9195 28.4269 22.823 28.311 22.6492 28.2531C21.6838 27.9056 21.1239 27.2491 21.1239 26.3224C21.1239 25.0867 22.1858 24.0634 23.9428 24.0634C25.6998 24.0634 26.7617 25.0867 26.7617 26.3224C26.7617 27.2491 26.2018 27.9056 25.2364 28.2531C25.0627 28.311 24.9661 28.4462 25.0241 28.6393C25.082 28.813 25.1978 28.8903 25.4488 28.8517L26.0667 28.7744C26.4528 28.7165 26.6459 28.8903 26.6459 29.2764L26.6459 37.7718C26.6459 38.158 26.4528 38.351 26.0667 38.351H21.819C21.4328 38.351 21.2397 38.158 21.2397 37.7718L21.2397 29.2764C21.2397 28.8903 21.4328 28.7165 21.819 28.7744Z" fill="#FF00BF"/>
<path d="M12.6449 35.4742L12.838 37.7718C12.8766 38.158 12.7029 38.3511 12.3167 38.3511H8.26209C7.87594 38.3511 7.68286 38.158 7.68286 37.7718L7.68286 25.4149C7.68286 25.0287 7.87594 24.8357 8.26209 24.8357H11.332C11.7182 24.8357 12.0078 25.0094 12.2588 25.299L14.5371 28.0214C14.7109 28.2145 14.846 28.4076 15.1163 28.4076C15.4252 28.4076 15.5218 28.1759 15.5025 27.9249L15.2901 25.4149C15.2515 25.0287 15.4446 24.8357 15.8307 24.8357H19.8853C20.2715 24.8357 20.4646 25.0287 20.4646 25.4149V37.7718C20.4646 38.158 20.2715 38.3511 19.8853 38.3511H16.8154C16.4292 38.3511 16.1396 38.1966 15.8693 37.907L13.6296 35.3584C13.4752 35.1653 13.3207 34.9915 13.0504 34.9915C12.7415 34.9915 12.6256 35.2232 12.6449 35.4742Z" fill="#FF00BF"/>
</svg>
