<svg preserveAspectRatio="none" overflow="visible" style="display: block;" width="256" height="228.879" viewBox="0 0 256 228.879" fill="none" xmlns="http://www.w3.org/2000/svg">
<g id="Group 26">
<path id="Vector" d="M196.605 6.59295C195.004 8.18912 193.717 9.95883 192.673 11.8673L132.304 93.0649C129.729 95.6327 129.729 99.7963 132.304 102.33C134.878 104.863 139.054 104.898 141.594 102.33L223.014 42.1255C224.928 41.1192 226.702 39.8006 228.303 38.2044C237.071 29.4601 237.071 15.3026 228.303 6.55826C219.535 -2.18609 205.338 -2.18609 196.57 6.55826L196.605 6.59295Z" fill="#D4D4D4"/>
<path id="Vector_2" d="M237.245 107.361C235.366 107.361 233.522 107.639 231.817 108.159L147.927 120.443C144.9 120.443 142.429 122.907 142.429 125.926C142.429 128.945 144.9 131.408 147.927 131.408L231.783 143.97C233.488 144.49 235.332 144.768 237.21 144.768C247.579 144.768 256 136.405 256 126.099C256 115.793 247.614 107.361 237.28 107.361H237.245Z" fill="#D4D4D4"/>
<path id="Vector_3" d="M196.117 193.243C195.039 192.168 193.856 191.3 192.568 190.606L138.115 150.216C136.41 148.481 133.591 148.481 131.886 150.216C130.181 151.95 130.146 154.727 131.886 156.427L172.213 210.87C172.875 212.155 173.744 213.335 174.823 214.41C180.668 220.275 190.202 220.275 196.048 214.41C201.894 208.546 201.928 199.073 196.048 193.243H196.117Z" fill="#D4D4D4"/>
<path id="Vector_4" d="M120.786 217.394C120.786 216.249 120.613 215.104 120.3 214.062L112.714 162.533C112.714 160.659 111.218 159.168 109.339 159.133C107.46 159.099 105.964 160.625 105.929 162.499L98.1697 213.993C97.8567 215.034 97.683 216.179 97.683 217.324C97.683 223.675 102.833 228.844 109.235 228.879C115.602 228.879 120.786 223.744 120.821 217.359L120.786 217.394Z" fill="#D4D4D4"/>
<path id="Vector_5" d="M62.4354 183.423C62.9922 182.868 63.4793 182.209 63.8272 181.549L85.4695 152.54C86.3741 151.638 86.4091 150.146 85.4695 149.209C84.5305 148.272 83.0686 148.272 82.1297 149.209L52.9712 170.688C52.2753 171.035 51.649 171.521 51.0923 172.076C47.9607 175.199 47.9607 180.266 51.0923 183.388C54.2238 186.511 59.3039 186.511 62.4354 183.388V183.423Z" fill="#D4D4D4"/>
<path id="Vector_6" d="M17.6893 137.585C18.8375 137.585 19.9857 137.411 21.0295 137.099L72.6656 129.465C74.5441 129.465 76.0404 127.938 76.0404 126.099C76.0404 124.26 74.5091 122.733 72.6656 122.733L21.0295 115.099C19.9857 114.787 18.8375 114.613 17.6893 114.613C11.3218 114.613 6.13732 119.784 6.13732 126.134C6.13732 132.484 11.3218 137.654 17.6893 137.654V137.585Z" fill="#D4D4D4"/>
<path id="Vector_7" d="M5.47586 48.9957C6.79807 50.349 8.29424 51.4247 9.89481 52.2575L77.9189 102.745C80.0761 104.897 83.5559 104.897 85.7131 102.745C87.8703 100.594 87.8703 97.1245 85.7131 94.9726L35.3299 26.9613C34.4948 25.3651 33.3814 23.873 32.0592 22.5545C24.7522 15.2328 12.8524 15.2328 5.51066 22.5197C-1.83108 29.8067 -1.83108 41.674 5.47586 48.9957Z" fill="#D4D4D4"/>
<path id="Vector_8" d="M97.6823 34.7689C97.6823 35.914 97.8567 37.059 98.1696 38.1L105.825 89.5942C105.825 91.468 107.356 92.9602 109.2 92.9602C111.044 92.9602 112.575 91.4337 112.575 89.5942L120.23 38.1C120.543 37.059 120.717 35.914 120.717 34.7689C120.717 28.4187 115.532 23.2485 109.165 23.2485C102.798 23.2485 97.613 28.4187 97.613 34.7689H97.6823Z" fill="#D4D4D4"/>
</g>
</svg>
